HIERARCHY
ROOT Hips
{
	OFFSET -3.958830 18.904000 13.208200
	CHANNELS 6 Xposition Yposition Zposition Zrotation Yrotation Xrotation 
	JOINT LHipJoint
	{
		OFFSET 0.000000 0.000000 0.000000
		CHANNELS 3 Zrotation Yrotation Xrotation
		JOINT LeftUpLeg
		{
			OFFSET 1.800000 -1.400000 0.085000
			CHANNELS 3 Zrotation Yrotation Xrotation
			JOINT LeftLeg
			{
				OFFSET 2.215000 -6.000000 0.000000
				CHANNELS 3 Zrotation Yrotation Xrotation
				JOINT LeftFoot
				{
					OFFSET 2.500000 -6.900000 0.000000
					CHANNELS 3 Zrotation Yrotation Xrotation
					JOINT LeftToeBase
					{
						OFFSET 0.200000 -0.500000 1.950000
						CHANNELS 3 Zrotation Yrotation Xrotation
						End Site
						{
							OFFSET 0.000000 0.000000 0.000000
						}
					}
				}
			}
		}
	}
	JOINT RHipJoint
	{
		OFFSET 0.000000 0.000000 0.000000
		CHANNELS 3 Zrotation Yrotation Xrotation
		JOINT RightUpLeg
		{
			OFFSET -1.800000 -1.400000 0.085000
			CHANNELS 3 Zrotation Yrotation Xrotation
			JOINT RightLeg
			{
				OFFSET -2.215000 -6.000000 0.000000
				CHANNELS 3 Zrotation Yrotation Xrotation
				JOINT RightFoot
				{
					OFFSET -2.500000 -6.900000 0.000000
					CHANNELS 3 Zrotation Yrotation Xrotation
					JOINT RightToeBase
					{
						OFFSET -0.200000 -0.500000 1.950000
						CHANNELS 3 Zrotation Yrotation Xrotation
						End Site
						{
							OFFSET 0.000000 0.000000 0.000000
						}
					}
				}
			}
		}
	}
	JOINT LowerBack
	{
		OFFSET 0.000000 0.000000 0.000000
		CHANNELS 3 Zrotation Yrotation Xrotation
		JOINT Spine
		{
			OFFSET -0.087000 1.940000 -0.288900
			CHANNELS 3 Zrotation Yrotation Xrotation
			JOINT Spine1
			{
				OFFSET 0.000000 1.950000 0.060000
				CHANNELS 3 Zrotation Yrotation Xrotation
				JOINT Neck
				{
					OFFSET 0.000000 0.000000 0.000000
					CHANNELS 3 Zrotation Yrotation Xrotation
					JOINT Neck1
					{
						OFFSET 0.000000 1.600000 0.340000
						CHANNELS 3 Zrotation Yrotation Xrotation
						JOINT Head
						{
							OFFSET 0.000000 1.667000 -0.240000
							CHANNELS 3 Zrotation Yrotation Xrotation
							End Site
							{
								OFFSET 0.000000 0.000000 0.000000
							}
						}
					}
				}
				JOINT LeftShoulder
				{
					OFFSET 0.000000 0.000000 0.000000
					CHANNELS 3 Zrotation Yrotation Xrotation
					JOINT LeftArm
					{
						OFFSET 2.700000 1.550000 -0.730000
						CHANNELS 3 Zrotation Yrotation Xrotation
						JOINT LeftForeArm
						{
							OFFSET 5.450000 0.000000 0.000000
							CHANNELS 3 Zrotation Yrotation Xrotation
							JOINT LeftHand
							{
								OFFSET 3.450000 0.000000 0.000000
								CHANNELS 3 Zrotation Yrotation Xrotation
								JOINT LeftHandIndex1
								{
									OFFSET 0.750000 0.000000 0.000000
									CHANNELS 3 Zrotation Yrotation Xrotation
									End Site
									{
										OFFSET 0.000000 0.000000 0.000000
									}
								}
							}
						}
					}
				}
				JOINT RightShoulder
				{
					OFFSET 0.000000 0.000000 0.000000
					CHANNELS 3 Zrotation Yrotation Xrotation
					JOINT RightArm
					{
						OFFSET -2.700000 1.550000 -0.730000
						CHANNELS 3 Zrotation Yrotation Xrotation
						JOINT RightForeArm
						{
							OFFSET -5.450000 0.000000 0.000000
							CHANNELS 3 Zrotation Yrotation Xrotation
							JOINT RightHand
							{
								OFFSET -3.450000 0.000000 0.000000
								CHANNELS 3 Zrotation Yrotation Xrotation
								JOINT RightHandIndex1
								{
									OFFSET -0.750000 0.000000 0.000000
									CHANNELS 3 Zrotation Yrotation Xrotation
									End Site
									{
										OFFSET 0.000000 0.000000 0.000000
									}
								}
							}
						}
					}
				}
			}
		}
	}
}
MOTION
Frames: 5
Frame Time: 0.016667
-1.094120 17.975220 2.163000 -3.453940 37.008383 0.879528 -15.148243 12.783669 3.397536 22.090296 -4.591283 -13.413343 -16.835096 12.274638 25.939693 -0.275019 8.644059 1.748293 -1.351530 -1.833490 -1.232220 18.299958 -9.961518 3.351488 -7.911715 3.020998 -39.447348 7.033722 -9.784777 31.789806 0.187598 -4.779312 2.800648 -0.915070 1.486870 0.131830 -4.579636 -2.128893 -8.403976 24.660470 -20.602795 40.156101 -16.687148 -10.984810 -18.217464 3.225891 -6.086609 -9.750957 -13.191140 -0.953899 31.733802 5.444080 -10.937850 0.724690 4.195178 16.152989 -0.032307 -47.157765 -6.839523 -1.470566 43.376449 -69.706362 -26.839190 -4.127758 1.931076 0.736880 0.558270 -0.640780 -0.067490 -12.273957 -12.721226 7.763365 60.740175 -12.444717 -20.660786 -52.607438 73.393443 -25.961965 1.244897 -0.185848 -0.974680 0.770950 1.274030 0.077600 
-1.099010 17.951770 2.176510 -3.475682 37.582500 0.970458 -15.150093 12.737987 3.396884 22.391402 -4.611664 -13.439389 -16.946749 12.290682 25.772930 -0.254633 8.632938 1.749305 -1.353860 -1.826270 -1.233290 18.310613 -9.930636 3.366236 -8.184705 2.916291 -39.870456 7.249468 -10.098934 32.461528 0.170946 -4.924478 2.749729 -0.915650 1.476710 0.115720 -4.604085 -2.113073 -8.416018 25.142607 -20.898902 39.730610 -16.785094 -11.081311 -17.707203 3.120540 -6.157648 -9.990873 -13.366593 -1.013237 31.814904 5.591090 -11.200130 1.266480 4.410778 15.604114 0.419249 -47.867385 -6.500247 -1.975068 45.703848 -69.803094 -28.591650 -4.096936 1.862700 0.720110 0.551950 -0.642750 -0.069230 -12.314022 -12.214678 7.830003 61.319064 -12.349900 -20.951346 -54.075022 72.278564 -26.342099 1.266983 -0.159858 -0.967430 0.766830 1.263470 0.083390 
-1.113090 17.914680 2.197880 -3.541829 38.294522 0.848373 -15.159216 12.687815 3.411083 23.038607 -4.581970 -13.159742 -17.254178 12.379654 25.434423 -0.244266 8.672456 1.731004 -1.361020 -1.827280 -1.223780 18.316151 -9.881856 3.379845 -8.346395 2.889811 -40.293282 7.276703 -10.478650 33.625385 0.138133 -5.122243 2.682273 -0.919240 1.463690 0.091780 -4.612474 -2.115566 -8.449422 25.591444 -21.151138 39.622207 -16.808102 -11.019999 -16.846503 3.096590 -6.052774 -10.266443 -13.308316 -1.212665 32.333808 5.734020 -11.418390 1.275270 4.340470 14.642924 0.906617 -48.729780 -6.117412 -2.792409 49.745575 -70.078401 -31.726490 -4.051191 1.694891 0.725980 0.540260 -0.639560 -0.082230 -12.260188 -11.378817 8.007613 62.202135 -12.152396 -21.506520 -55.728604 70.793577 -26.855866 1.282146 -0.105520 -0.974220 0.779970 1.261970 0.076620 
-1.131980 17.880750 2.222950 -3.730924 38.947069 0.406625 -15.175986 12.692550 3.412845 23.705867 -4.477876 -12.647755 -17.288096 12.387649 25.084701 -0.231734 8.687402 1.721941 -1.363320 -1.827570 -1.209530 18.305381 -9.838916 3.388150 -8.265024 2.952885 -40.450111 7.170671 -10.835726 34.951398 0.095237 -5.325919 2.619194 -0.926730 1.444510 0.077580 -4.591305 -2.179541 -8.473739 25.971604 -21.626774 40.361407 -16.815344 -10.905645 -16.445436 3.221489 -5.973053 -10.642516 -13.287908 -1.326175 32.899316 5.857590 -11.505960 1.012210 4.453388 13.848907 1.409093 -49.852254 -5.532419 -3.637680 53.912802 -70.499131 -35.076999 -3.996542 1.512420 0.737550 0.525670 -0.626710 -0.090970 -12.670384 -10.548273 8.260068 63.252822 -11.891796 -21.959446 -54.969767 69.281459 -25.873745 1.337335 -0.143620 -0.974390 0.786190 1.255280 0.069070 
-1.150250 17.841730 2.248620 -3.897778 39.505525 0.101304 -15.183906 12.664221 3.399393 24.244431 -4.357662 -12.170337 -17.341474 12.415410 24.798579 -0.209214 8.682405 1.707958 -1.356440 -1.808800 -1.187510 18.308828 -9.789745 3.428774 -8.179210 3.118269 -40.888863 7.104223 -11.242289 36.454119 0.040216 -5.563812 2.531155 -0.931790 1.408130 0.069480 -4.595748 -2.174278 -8.505785 26.610693 -22.060373 40.787325 -17.152755 -10.759942 -15.789207 3.366336 -5.810507 -10.954813 -13.095931 -1.452585 33.557589 6.141250 -11.536010 0.471390 4.383164 12.969766 1.865161 -50.810401 -5.009841 -4.518803 58.940724 -70.760328 -39.013779 -3.930509 1.296515 0.742710 0.502940 -0.604230 -0.109530 -12.974363 -9.680877 8.511820 64.607787 -11.537836 -22.447919 -54.971444 67.426162 -25.212911 1.400663 -0.169513 -0.956020 0.774330 1.243990 0.064650 
